HIERARCHY
ROOT joint_Root
{
	OFFSET 0.0 0.0 0.0
	CHANNELS 6 Xposition Yposition Zposition Zrotation Xrotation Yrotation 
	JOINT Hips
	{
		OFFSET -17.1583 93.1646 452.98
		CHANNELS 6 Xposition Yposition Zposition Zrotation Xrotation Yrotation 
		JOINT Spine
		{
			OFFSET 15.7357 0.0 0.0
			CHANNELS 6 Xposition Yposition Zposition Zrotation Xrotation Yrotation 
			JOINT Chest
			{
				OFFSET 8.98455 -0.406207 0.0
				CHANNELS 6 Xposition Yposition Zposition Zrotation Xrotation Yrotation 
				JOINT Neck
				{
					OFFSET 16.3773 0.0 0.0
					CHANNELS 6 Xposition Yposition Zposition Zrotation Xrotation Yrotation 
					JOINT Head
					{
						OFFSET 6.45672 0.0 0.0
						CHANNELS 6 Xposition Yposition Zposition Zrotation Xrotation Yrotation 
						End Site
						{
							OFFSET 0.0 0.0 0.0
						}
					}
				}
				JOINT Shoulder_L
				{
					OFFSET 12.9942 -0.242716 4.98039
					CHANNELS 6 Xposition Yposition Zposition Zrotation Xrotation Yrotation 
					JOINT UpperArm_L
					{
						OFFSET 5.34809 0.0 0.0
						CHANNELS 6 Xposition Yposition Zposition Zrotation Xrotation Yrotation 
						JOINT LowerArm_L
						{
							OFFSET 24.3286 1.87007e-05 0.0
							CHANNELS 6 Xposition Yposition Zposition Zrotation Xrotation Yrotation 
							JOINT Hand_L
							{
								OFFSET 22.2916 0.0 0.0
								CHANNELS 6 Xposition Yposition Zposition Zrotation Xrotation Yrotation 
								End Site
								{
									OFFSET 0.0 0.0 0.0
								}
							}
						}
					}
				}
				JOINT Shoulder_R
				{
					OFFSET 12.9945 -0.242716 -4.98039
					CHANNELS 6 Xposition Yposition Zposition Zrotation Xrotation Yrotation 
					JOINT UpperArm_R
					{
						OFFSET -5.34813 0.0 0.0
						CHANNELS 6 Xposition Yposition Zposition Zrotation Xrotation Yrotation 
						JOINT LowerArm_R
						{
							OFFSET -24.3289 0.000322201 0.0
							CHANNELS 6 Xposition Yposition Zposition Zrotation Xrotation Yrotation 
							JOINT Hand_R
							{
								OFFSET -22.2915 -0.000108084 0.0
								CHANNELS 6 Xposition Yposition Zposition Zrotation Xrotation Yrotation 
								End Site
								{
									OFFSET 0.0 0.0 0.0
								}
							}
						}
					}
				}
			}
		}
		JOINT UpperLeg_L
		{
			OFFSET -2.19248 -6.46944 0.0
			CHANNELS 6 Xposition Yposition Zposition Zrotation Xrotation Yrotation 
			JOINT LowerLeg_L
			{
				OFFSET 39.0811 0.0 -1.23785e-05
				CHANNELS 6 Xposition Yposition Zposition Zrotation Xrotation Yrotation 
				JOINT Foot_L
				{
					OFFSET 40.9854 0.0 -1.26872e-05
					CHANNELS 6 Xposition Yposition Zposition Zrotation Xrotation Yrotation 
					JOINT Toes_L
					{
						OFFSET 11.7543 0.0 0.0
						CHANNELS 6 Xposition Yposition Zposition Zrotation Xrotation Yrotation 
						End Site
						{
							OFFSET 0.0 0.0 0.0
						}
					}
				}
			}
		}
		JOINT UpperLeg_R
		{
			OFFSET -2.19251 6.46944 0.0
			CHANNELS 6 Xposition Yposition Zposition Zrotation Xrotation Yrotation 
			JOINT LowerLeg_R
			{
				OFFSET -39.0811 -0.00228153 -0.0401928
				CHANNELS 6 Xposition Yposition Zposition Zrotation Xrotation Yrotation 
				JOINT Foot_R
				{
					OFFSET -40.9854 0.0 0.0
					CHANNELS 6 Xposition Yposition Zposition Zrotation Xrotation Yrotation 
					JOINT Toes_R
					{
						OFFSET -11.7543 0.0 0.0
						CHANNELS 6 Xposition Yposition Zposition Zrotation Xrotation Yrotation 
						End Site
						{
							OFFSET 0.0 0.0 0.0
						}
					}
				}
			}
		}
	}
}
MOTION
Frames:	6
Frame Time:	0.0333333
0.000000 0.000000 0.000000 0.000000 0.000000 -0.000000 139.009000 89.220600 214.176000 -87.990200 39.499500 172.090000 15.735700 0.000005 -0.000001 128.332000 87.895500 -127.564000 8.984550 -0.406207 -0.000000 -4.483090 2.526320 1.636700 16.377300 -0.000001 -0.000001 4.289330 9.521450 1.668040 6.456720 -0.000001 -0.000000 -1.079630 13.329200 -0.634595 12.994200 -0.242716 4.980390 -93.270000 7.855950 -67.314700 5.348090 -0.000007 -0.000001 -59.568900 -17.060500 16.221500 24.328600 0.000019 0.000005 2.269180 11.908300 -10.870400 22.291600 -0.000001 0.000005 45.527300 4.265530 20.320900 12.994500 -0.242716 -4.980390 88.727700 3.879680 -71.828600 -5.348130 -0.000001 -0.000004 -65.833400 8.583110 -20.434300 -24.328900 0.000322 -0.000009 12.095700 14.343500 -40.864700 -22.291500 -0.000108 -0.000004 42.800000 5.470500 -5.388400 -2.192480 -6.469440 -0.000000 169.585000 -1.983460 -31.601700 39.081100 -0.000007 -0.000012 0.061932 -0.205414 16.778000 40.985400 -0.000006 -0.000013 11.944100 0.344228 -54.814900 11.754300 -0.000000 0.000003 0.002407 0.098901 -12.566100 -2.192510 6.469440 -0.000001 171.782000 21.183000 -176.831000 -39.081100 -0.002282 -0.040193 0.105575 -0.148709 34.520300 -40.985400 0.000008 0.000006 -17.172600 -12.087900 -55.779400 -11.754300 -0.000006 -0.000006 -0.077860 -0.385914 -32.585800
0.000000 0.000000 0.000000 0.000000 0.000000 -0.000000 141.834000 89.082000 210.096000 -89.439100 37.406700 174.012000 15.735700 0.000005 -0.000001 114.021000 88.077100 -113.640000 8.984550 -0.406207 -0.000000 -4.259090 1.524300 0.820100 16.377300 -0.000001 -0.000001 3.793240 9.336610 0.816269 6.456720 -0.000001 -0.000000 -1.269060 13.236000 -0.014715 12.994200 -0.242716 4.980390 -93.404900 8.351250 -67.724200 5.348090 -0.000007 -0.000001 -62.444200 -14.861700 13.998900 24.328600 0.000019 0.000005 2.186920 12.589000 -9.937860 22.291600 -0.000001 0.000005 45.847100 4.265550 20.320700 12.994500 -0.242716 -4.980390 88.681400 4.008680 -71.774900 -5.348130 -0.000001 -0.000004 -68.121500 9.037190 -16.360900 -24.328900 0.000322 -0.000009 11.588400 15.536600 -37.438400 -22.291500 -0.000108 -0.000004 42.873800 5.494040 -6.299240 -2.192480 -6.469440 -0.000000 168.932000 1.027680 -30.829400 39.081100 -0.000007 -0.000012 0.154782 -0.360005 23.265300 40.985400 -0.000006 -0.000013 12.130500 -0.424885 -55.746000 11.754300 -0.000000 0.000003 0.002063 0.118452 -11.773300 -2.192510 6.469440 -0.000001 170.732000 18.238000 -178.620000 -39.081100 -0.002282 -0.040193 0.262909 -0.298005 41.063900 -40.985400 0.000008 0.000006 -12.375300 -15.704600 -44.828300 -11.754300 -0.000006 -0.000006 -0.067288 -0.354763 -31.252200
0.000000 0.000000 0.000000 0.000000 0.000000 -0.000000 144.444000 88.891900 206.237000 -90.366300 34.794300 176.729000 15.735700 0.000005 -0.000001 96.441300 87.512600 -96.283800 8.984550 -0.406207 -0.000000 -2.823430 0.543334 0.328407 16.377300 -0.000001 -0.000001 3.354680 8.954610 -0.021069 6.456720 -0.000001 -0.000000 -1.879470 12.888300 -0.094106 12.994200 -0.242716 4.980390 -93.271300 8.267510 -68.322700 5.348090 -0.000007 -0.000001 -66.806400 -11.914300 10.330800 24.328600 0.000019 0.000005 2.286910 13.174100 -9.938480 22.291600 -0.000001 0.000005 46.688300 4.259030 20.419900 12.994500 -0.242716 -4.980390 88.778700 3.673750 -71.597000 -5.348130 -0.000001 -0.000004 -69.908300 9.738360 -13.062800 -24.328900 0.000322 -0.000009 9.208830 15.259700 -31.632700 -22.291500 -0.000108 -0.000004 41.093600 5.513830 -7.103510 -2.192480 -6.469440 -0.000000 167.663000 1.359830 -27.930100 39.081100 -0.000007 -0.000012 0.285027 -0.525305 28.484400 40.985400 -0.000006 -0.000013 12.783200 0.909977 -59.650000 11.754300 -0.000000 0.000003 0.001599 0.133905 -11.146600 -2.192510 6.469440 -0.000001 170.088000 15.263500 178.585000 -39.081100 -0.002282 -0.040193 0.443380 -0.378504 49.305800 -40.985400 0.000008 0.000006 -8.453270 -17.553300 -31.780800 -11.754300 -0.000006 -0.000006 0.000519 0.009241 -16.198600
0.000000 0.000000 0.000000 0.000000 0.000000 -0.000000 146.501000 88.567800 202.828000 -91.356100 32.938700 178.793000 15.735700 0.000005 -0.000001 88.898300 87.010500 -88.945000 8.984550 -0.406207 -0.000000 -1.788280 -0.111031 -0.095217 16.377300 -0.000001 -0.000001 3.371560 8.845370 -0.882460 6.456720 -0.000001 -0.000000 -2.289560 12.679200 -0.617827 12.994200 -0.242716 4.980390 -93.310000 8.424180 -68.457300 5.348090 -0.000007 -0.000001 -70.451300 -8.023790 6.985380 24.328600 0.000019 0.000005 2.823660 12.798200 -12.552400 22.291600 -0.000001 0.000005 45.868500 4.300170 19.786500 12.994500 -0.242716 -4.980390 88.760200 3.698390 -71.453100 -5.348130 -0.000001 -0.000004 -69.813700 12.338900 -11.022200 -24.328900 0.000322 -0.000009 6.676120 15.506100 -23.649000 -22.291500 -0.000108 -0.000004 39.385300 5.524730 -7.567840 -2.192480 -6.469440 -0.000000 166.156000 0.079922 -25.274100 39.081100 -0.000007 -0.000012 0.426677 -0.678201 32.176200 40.985400 -0.000006 -0.000013 13.856900 2.833960 -63.834900 11.754300 -0.000000 0.000003 0.000842 0.151980 -10.413200 -2.192510 6.469440 -0.000001 169.791000 11.939500 173.665000 -39.081100 -0.002282 -0.040193 0.486154 -0.310172 57.289700 -40.985400 0.000008 0.000006 -6.167260 -10.793900 -22.720300 -11.754300 -0.000006 -0.000006 -0.000942 0.182242 -9.180760
0.000000 0.000000 0.000000 0.000000 0.000000 -0.000000 148.452000 88.802500 199.566000 -91.846900 30.896800 -179.935000 15.735700 0.000005 -0.000001 82.558600 86.671900 -82.627800 8.984550 -0.406207 -0.000000 -1.166380 -0.856489 -0.146933 16.377300 -0.000001 -0.000001 3.728050 8.807690 -1.850310 6.456720 -0.000001 -0.000000 -2.199950 12.472600 -1.054380 12.994200 -0.242716 4.980390 -93.398300 8.643110 -68.439000 5.348090 -0.000007 -0.000001 -72.889500 -2.330920 4.271340 24.328600 0.000019 0.000005 4.310380 13.855500 -17.466300 22.291600 -0.000001 0.000005 44.835100 4.373350 18.646800 12.994500 -0.242716 -4.980390 88.732900 3.779950 -71.453300 -5.348130 -0.000001 -0.000004 -69.831700 13.325600 -8.621030 -24.328900 0.000322 -0.000009 4.772510 16.954600 -15.981100 -22.291500 -0.000108 -0.000004 36.964500 5.529360 -7.764960 -2.192480 -6.469440 -0.000000 165.469000 -0.893608 -21.213200 39.081100 -0.000007 -0.000012 0.472696 -0.749838 32.228500 40.985400 -0.000006 -0.000013 14.794200 4.899150 -66.625200 11.754300 -0.000000 0.000003 -0.000043 0.168337 -9.749120 -2.192510 6.469440 -0.000001 170.052000 8.842120 168.611000 -39.081100 -0.002282 -0.040193 0.366256 -0.175345 64.222900 -40.985400 0.000008 0.000006 -6.984890 -2.272660 -28.834100 -11.754300 -0.000006 -0.000006 -0.000552 0.176491 -9.414440
0.000000 0.000000 0.000000 0.000000 0.000000 -0.000000 150.472000 89.376800 196.441000 -91.510100 28.553400 -178.916000 15.735700 0.000005 -0.000001 78.777300 86.225300 -78.563800 8.984550 -0.406207 -0.000000 -0.358033 -1.484090 0.422254 16.377300 -0.000001 -0.000001 3.981570 8.547100 -2.748300 6.456720 -0.000001 -0.000000 -1.636400 12.149900 -1.643740 12.994200 -0.242716 4.980390 -93.389700 8.709600 -68.637000 5.348090 -0.000007 -0.000001 -74.213000 3.227760 2.104640 24.328600 0.000019 0.000005 7.653310 17.182000 -24.454200 22.291600 -0.000001 0.000005 45.219000 4.437590 17.619800 12.994500 -0.242716 -4.980390 88.806300 3.552380 -71.413300 -5.348130 -0.000001 -0.000004 -70.378600 11.060700 -5.294700 -24.328900 0.000322 -0.000009 3.171800 17.734200 -10.313900 -22.291500 -0.000108 -0.000004 34.699500 5.504720 -6.720570 -2.192480 -6.469440 -0.000000 165.986000 -0.661475 -15.959300 39.081100 -0.000007 -0.000012 0.434878 -0.742586 30.355500 40.985400 -0.000006 -0.000013 15.192100 6.310560 -68.419600 11.754300 -0.000000 0.000003 -0.000276 0.172151 -9.594220 -2.192510 6.469440 -0.000001 170.955000 5.820120 164.242000 -39.081100 -0.002282 -0.040193 0.276574 -0.110278 68.035900 -40.985400 0.000008 0.000006 -7.249040 -3.441920 -36.888900 -11.754300 -0.000006 -0.000006 -0.000664 0.178179 -9.345840
